<svg width="28" height="29" viewBox="0 0 28 29" fill="none" xmlns="http://www.w3.org/2000/svg">
<g id="error">
<mask id="mask0_2153_2587" style="mask-type:alpha" maskUnits="userSpaceOnUse" x="0" y="0" width="28" height="29">
<rect id="Bounding box" y="0.5" width="28" height="28" fill="#D9D9D9"/>
</mask>
<g mask="url(#mask0_2153_2587)">
<path id="error_2" d="M14 20.0192C14.267 20.0192 14.4908 19.9289 14.6714 19.7483C14.852 19.5677 14.9423 19.3439 14.9423 19.0769C14.9423 18.8099 14.852 18.5861 14.6714 18.4055C14.4908 18.2249 14.267 18.1346 14 18.1346C13.733 18.1346 13.5092 18.2249 13.3286 18.4055C13.148 18.5861 13.0577 18.8099 13.0577 19.0769C13.0577 19.3439 13.148 19.5677 13.3286 19.7483C13.5092 19.9289 13.733 20.0192 14 20.0192ZM13.125 15.7564H14.875V8.75641H13.125V15.7564ZM14.0019 25.5833C12.469 25.5833 11.0282 25.2924 9.67933 24.7106C8.33049 24.1289 7.15719 23.3393 6.15944 22.342C5.16166 21.3447 4.37176 20.1719 3.78973 18.8237C3.2077 17.4754 2.91669 16.0349 2.91669 14.5019C2.91669 12.969 3.20758 11.5282 3.78935 10.1793C4.37113 8.83049 5.16067 7.65719 6.15798 6.65944C7.1553 5.66167 8.32809 4.87176 9.67632 4.28973C11.0245 3.7077 12.4651 3.41669 13.998 3.41669C15.531 3.41669 16.9718 3.70758 18.3207 4.28935C19.6695 4.87113 20.8428 5.66067 21.8405 6.65798C22.8383 7.6553 23.6282 8.82809 24.2103 10.1763C24.7923 11.5245 25.0833 12.9651 25.0833 14.498C25.0833 16.031 24.7924 17.4718 24.2106 18.8207C23.6289 20.1695 22.8393 21.3428 21.842 22.3405C20.8447 23.3383 19.6719 24.1282 18.3237 24.7103C16.9754 25.2923 15.5349 25.5833 14.0019 25.5833ZM14 23.8333C16.6055 23.8333 18.8125 22.9292 20.6208 21.1208C22.4292 19.3125 23.3333 17.1055 23.3333 14.5C23.3333 11.8944 22.4292 9.68749 20.6208 7.87916C18.8125 6.07083 16.6055 5.16666 14 5.16666C11.3944 5.16666 9.18749 6.07083 7.37916 7.87916C5.57082 9.68749 4.66666 11.8944 4.66666 14.5C4.66666 17.1055 5.57082 19.3125 7.37916 21.1208C9.18749 22.9292 11.3944 23.8333 14 23.8333Z" fill="#C52611"/>
</g>
</g>
</svg>
